<?xml version="1.0" encoding="utf-8"?>
<!-- Svg Vector Icons : http://www.onlinewebfonts.com/icon -->
<!DOCTYPE svg PUBLIC "-//W3C//DTD SVG 1.1//EN" "http://www.w3.org/Graphics/SVG/1.1/DTD/svg11.dtd">
<svg version="1.1" xmlns="http://www.w3.org/2000/svg" xmlns:xlink="http://www.w3.org/1999/xlink" x="0px" y="0px" viewBox="0 0 256 256" enable-background="new 0 0 256 256" xml:space="preserve">
<metadata> Svg Vector Icons : http://www.onlinewebfonts.com/icon </metadata>
<g><g><g><path fill="#000000" d="M122.2,25.1c-3.1,2.3-29.4,21.5-58.6,42.8c-29.1,21.3-52.9,38.8-52.8,38.8c0.5,0.4,234.6,0.9,234.5,0.4c0-0.4-116.2-85.7-117.2-86C127.9,21.1,125.2,22.9,122.2,25.1z"/><path fill="#000000" d="M10,173.4v61.5h118h118v-61.5v-61.5h-6c-6,0-6.1,0.1-9.7,2.3c-2,1.3-25.8,18.6-53,38.4l-49.3,36l-22-16c-63.8-46.6-76.9-56.2-80.3-58.4c-3.6-2.3-3.7-2.3-9.7-2.3h-6V173.4z M88.1,178.9c0,0.2-13.6,10.7-30.2,23.2L27.7,225h-4h-3.9l0.2-3.3l0.2-3.2l30.1-22.8L80.4,173l3.8,2.8C86.3,177.3,88.1,178.7,88.1,178.9z M206.7,196.2l29.2,22.3l0.2,3.3l0.2,3.2h-4h-3.9l-30.2-22.9c-16.5-12.5-30.1-23-30-23.3c0.1-0.2,1.8-1.7,3.8-3.2c2.6-2,3.9-2.6,4.6-2.2C177,173.8,190.6,184,206.7,196.2z"/></g></g></g>
</svg>