<?xml version="1.0" encoding="utf-8"?>
<!-- Svg Vector Icons : http://www.onlinewebfonts.com/icon -->
<!DOCTYPE svg PUBLIC "-//W3C//DTD SVG 1.1//EN" "http://www.w3.org/Graphics/SVG/1.1/DTD/svg11.dtd">
<svg version="1.1" xmlns="http://www.w3.org/2000/svg" xmlns:xlink="http://www.w3.org/1999/xlink" x="0px" y="0px" viewBox="0 0 256 256" enable-background="new 0 0 256 256" xml:space="preserve">
<metadata> Svg Vector Icons : http://www.onlinewebfonts.com/icon </metadata>
<g><g><path fill="#000000" d="M95.9,241.2c-74,16.9-19.7-15.7-8.5-26.3c16.9-16,19.8-40.8,17.1-62.4c-3.1-24.9-15.7-33.3,3.1-63c0.9-1.4,2.1,2.4,6.8,3.5c8.7,2,14-4.3,19.4-3c2.9,0.7,4.6,3.9,10.2,5.2c12.5,2.9,12.4-11.2,22.5-8.9c4.8,1.1,18.4,1.7,20.5-8.4c0.1-0.7,13.3,2.6,11.2,48.5C195,196.3,158.2,227,95.9,241.2z M173.9,76.7c-3.6,4.5-14.6-5.2-24.9,7.4c-1.4,1.7-3.5,1.9-6.5-0.6c-2.5-2.1-3.2-1.7-7-2.6c-8.5-2-13.7,3.4-19.2,2.1c-5.5-1.3-23.3-6.8-21.4-16.2c1.9-9.4,24.1-19.1,33.4-24.2c0.3-0.2-9.9-17.6-10.1-19.3c-0.9-6.5,16.9-13.9,19.6-13.3c1.5,0.4,10.4,7.1,14.6,29.7c0.1,0.7,40,4.5,43.5,31.7C196.4,75,182.4,66.2,173.9,76.7z"/></g></g>
</svg>