<?xml version="1.0" encoding="utf-8"?>
<!-- Svg Vector Icons : http://www.onlinewebfonts.com/icon -->
<!DOCTYPE svg PUBLIC "-//W3C//DTD SVG 1.1//EN" "http://www.w3.org/Graphics/SVG/1.1/DTD/svg11.dtd">
<svg version="1.1" xmlns="http://www.w3.org/2000/svg" xmlns:xlink="http://www.w3.org/1999/xlink" x="0px" y="0px" viewBox="0 0 256 256" enable-background="new 0 0 256 256" xml:space="preserve">
<metadata> Svg Vector Icons : http://www.onlinewebfonts.com/icon </metadata>
<g><g><path fill="#000000" d="M65.7,10c-15.9,0-28.8,12.9-28.8,28.8v201.3c0,5.3,3.7,7.4,8.3,4.7l82.7-47.9l82.7,47.9c4.6,2.7,8.3,0.6,8.3-4.7V38.8c0-15.9-12.9-28.8-28.8-28.8H65.7z M128,139.4l-25.4,13.3c-4.7,2.5-7.7,0.2-6.8-5l4.8-28.2l-20.5-20c-3.8-3.7-2.6-7.3,2.6-8l28.4-4.1l12.7-25.7c2.3-4.7,6.1-4.7,8.5,0l12.7,25.7l28.3,4.1c5.2,0.7,6.4,4.4,2.6,8l-20.5,20l4.8,28.2c0.9,5.2-2.2,7.4-6.8,5L128,139.4z"/></g></g>
</svg>