<?xml version="1.0" encoding="utf-8"?>
<!-- Svg Vector Icons : http://www.onlinewebfonts.com/icon -->
<!DOCTYPE svg PUBLIC "-//W3C//DTD SVG 1.1//EN" "http://www.w3.org/Graphics/SVG/1.1/DTD/svg11.dtd">
<svg version="1.1" xmlns="http://www.w3.org/2000/svg" xmlns:xlink="http://www.w3.org/1999/xlink" x="0px" y="0px" viewBox="0 0 256 256" enable-background="new 0 0 256 256" xml:space="preserve">
<metadata> Svg Vector Icons : http://www.onlinewebfonts.com/icon </metadata>
<g><g><path fill="#000000" d="M10,147.4c6.5-12.2,13.6-24,22.2-34.8c15.3-19.4,34.7-32.9,58.1-41.1c18.2-6.3,36.3-13.3,54.5-19.8c2.6-0.9,5.5-0.9,8.2-1.3c0.1,0.2,0.2,0.5,0.3,0.7c-0.9,1.5-1.7,3-2.6,4.6c-2,3.7-4.1,7.3-5.9,11c-2.4,4.9-1.3,7.6,3.8,9.6c6.5,2.6,12.7,5.6,18.3,9.8c7.2,5.5,12.2,12.5,14.9,21.4c0.3-0.1,0.5-0.2,0.6-0.3c7.9-10.1,18.4-16,30.9-17.7c10-1.3,20.2-1.6,30.4-2.4c0.1,0.3,0.2,0.6,0.2,0.9c-0.7,0.4-1.5,0.8-2.2,1.3c-13.4,7.7-23.5,18.3-27.5,33.6c-6.2,24.1,0,48.7,22.1,65.8c3.2,2.4,6.5,4.7,9.8,7c-0.1,0.1-0.1,0.3-0.2,0.3c-10.5-0.1-21.1,0.2-31.6-0.4c-7.9-0.5-15.5-2.8-22.1-7.4c-8.3-5.7-12.3-14.1-14-23.6c-1.2-6.5-1.5-13.2-2.6-19.7c-3.1-17.5-13.7-29.6-28.5-38.5c-13.6-8.1-28.4-10.7-44.1-9.1c-15.2,1.5-29.6,5.9-42.3,14.6c-6.3,4.3-11.8,9.3-16.4,15.6c1.2-0.9,2.4-1.7,3.6-2.6c9.3-7.5,19.2-13.9,31-16.3c22.2-4.5,42,0.4,57.1,17.7c13.2,15.1,17.5,41.3-2.6,61.1c-14.4,14.3-31.8,19.9-51.9,18.2c-24.8-2.1-43.7-14.4-58.3-33.9c-4.8-6.4-8.8-13.3-13.2-20L10,147.4L10,147.4z M80,146.6c6.3,0,10.9-4.5,11-10.6c0.1-6.2-4.9-11.4-10.9-11.4s-11.1,5.3-11.1,11.3C69.1,141.8,73.9,146.5,80,146.6z"/></g></g>
</svg>