<?xml version="1.0" encoding="utf-8"?>
<!-- Svg Vector Icons : http://www.onlinewebfonts.com/icon -->
<!DOCTYPE svg PUBLIC "-//W3C//DTD SVG 1.1//EN" "http://www.w3.org/Graphics/SVG/1.1/DTD/svg11.dtd">
<svg version="1.1" xmlns="http://www.w3.org/2000/svg" xmlns:xlink="http://www.w3.org/1999/xlink" x="0px" y="0px" viewBox="0 0 256 256" enable-background="new 0 0 256 256" xml:space="preserve">
<metadata> Svg Vector Icons : http://www.onlinewebfonts.com/icon </metadata>
<g><g><g><path fill="#000000" d="M68.7,22.4C43.6,24.9,27.5,34.7,18,53.5c-7.1,14.2-10,38-6.6,54.8c3.6,17.9,13.8,38.4,27.2,55.3c9.1,11.4,34.2,34.3,53.4,48.8c12.9,9.7,27.3,18.7,33.3,20.8c2.5,0.9,2.8,0.9,5.3,0c18.7-6.6,71.4-49.6,89-72.6c15.3-20.1,25.1-43.6,26.3-62.9c0.4-6.8-0.5-18.5-1.9-25.5c-4.2-20.9-14.2-35-30.4-43c-7.3-3.6-15-5.7-25.4-6.7c-14.9-1.5-27.1,1.4-38.6,9c-4.6,3.1-12.2,10.6-15.4,15.4c-2.9,4.3-5.7,10.6-5.8,12.7c0,0.7-0.2,1.2-0.5,1.2c-0.3,0-0.5-0.5-0.5-1c0-1.8-2.5-7.8-5-11.7c-3.4-5.4-10.5-12.7-16.4-16.6c-9.1-6-17.8-8.8-28.8-9.1C73.7,22.3,69.8,22.3,68.7,22.4z"/></g></g></g>
</svg>