<?xml version="1.0" encoding="utf-8"?>
<!-- Svg Vector Icons : http://www.onlinewebfonts.com/icon -->
<!DOCTYPE svg PUBLIC "-//W3C//DTD SVG 1.1//EN" "http://www.w3.org/Graphics/SVG/1.1/DTD/svg11.dtd">
<svg version="1.1" xmlns="http://www.w3.org/2000/svg" xmlns:xlink="http://www.w3.org/1999/xlink" x="0px" y="0px" viewBox="0 0 256 256" enable-background="new 0 0 256 256" xml:space="preserve">
<metadata> Svg Vector Icons : http://www.onlinewebfonts.com/icon </metadata>
<g><g><g><path fill="#000000" d="M117.5,10.6c-38.3,6.1-67.1,38-70.5,78.3c-1.4,16.7,2.1,31.9,12.4,53.1c8.7,18.1,19.9,35.5,46.1,72.1c8.7,12.2,17.3,24.4,19,27c1.7,2.7,3.3,4.9,3.5,4.9c0.2,0,1.8-2.2,3.5-4.8c1.7-2.7,10.4-15,19.4-27.5c35.9-49.7,49.8-74.2,56.2-98.6c4.1-15.6,2.5-34.5-4.2-52c-7.6-19.5-24.7-37.8-43.4-46.3C147.7,11.4,129.5,8.7,117.5,10.6z M135.8,51.4c19,4.1,32.2,21.2,30.9,40.1c-1,14.8-10.8,28.2-24.7,33.7c-5.3,2-16.6,2.8-22.5,1.6c-16.4-3.5-29.1-18.2-30.2-35.2c-0.9-11.5,2.9-21.2,11.4-29.6C110.4,52.4,122.7,48.7,135.8,51.4z"/></g></g></g>
</svg>