<?xml version="1.0" encoding="utf-8"?>
<!-- Svg Vector Icons : http://www.onlinewebfonts.com/icon -->
<!DOCTYPE svg PUBLIC "-//W3C//DTD SVG 1.1//EN" "http://www.w3.org/Graphics/SVG/1.1/DTD/svg11.dtd">
<svg version="1.1" xmlns="http://www.w3.org/2000/svg" xmlns:xlink="http://www.w3.org/1999/xlink" x="0px" y="0px" viewBox="0 0 256 256" enable-background="new 0 0 256 256" xml:space="preserve">
<metadata> Svg Vector Icons : http://www.onlinewebfonts.com/icon </metadata>
<g><g><path fill="#000000" d="M128,21l37.8,64.4l70,17.9l-46.5,57.2l5.1,74.6L128,206.4L61.6,235l5.6-75.1l-47-57.2l70-17.9L128,21 M128,9.8L128,9.8c-3.6,0-7.2,2-9.2,5.1L83.5,75.1L18.1,92c-3.6,1-6.6,3.6-7.7,7.2c-1,3.6-0.5,7.7,2,10.7l43.9,53.6L51.4,234c-0.5,3.6,1.5,7.7,4.1,9.7c2,1.5,4.1,2,6.1,2c1.5,0,2.6-0.5,4.1-1l62.3-26.6l62.3,27.1c1.5,0.5,2.6,1,4.1,1c2,0,4.6-0.5,6.1-2c3.1-2,4.6-6.1,4.1-9.7l-5.1-70.5l43.9-53.7c2.6-3.1,3.1-7.2,2-10.7c-1-3.6-4.1-6.6-7.7-7.2l-65.9-16.4l-34.7-61.3C135.2,11.8,131.6,9.8,128,9.8L128,9.8z"/></g></g>
</svg>