<?xml version="1.0" encoding="utf-8"?>
<!-- Svg Vector Icons : http://www.onlinewebfonts.com/icon -->
<!DOCTYPE svg PUBLIC "-//W3C//DTD SVG 1.1//EN" "http://www.w3.org/Graphics/SVG/1.1/DTD/svg11.dtd">
<svg version="1.1" xmlns="http://www.w3.org/2000/svg" xmlns:xlink="http://www.w3.org/1999/xlink" x="0px" y="0px" viewBox="0 0 256 256" enable-background="new 0 0 256 256" xml:space="preserve">
<metadata> Svg Vector Icons : http://www.onlinewebfonts.com/icon </metadata>
<g><g><g><path fill="#000000" d="M224.9,11c-9.5,2.1-18.4,7.3-25.6,14.9c-8.1,8.5-12.4,18.9-13.3,31.3l-0.4,5.7l-3,2.9c-1.7,1.7-3,2.8-3,2.7c0-0.2,0.4-1.8,0.9-3.7c4.3-15.9-1.4-34.4-13.9-45.7c-8-7.2-13.5-6-19.6,4.1c-3.7,6.3-5.7,13.3-6.1,21.4c-0.4,9.2,0.8,14.7,4.8,23c3.3,6.9,9.2,13.9,13.9,16.7c1.5,0.9,2.7,1.7,2.7,1.7s-3.7,3.8-8.2,8.2l-8.2,8.2l0.7-4.5c2.6-14.7-2.3-30.1-13-40.8c-4.9-4.8-6.7-5.8-10.7-5.8c-3.3,0-3.5,0.1-6.4,3.1c-3.6,3.8-7.8,12.3-9.3,18.8c-3.4,15.4,1.4,31.9,12.4,43c1.9,2,4.2,4,5.2,4.5l1.7,1l-10.5,10.5c-9.7,9.6-10.3,10.1-9.3,7.6c2-4.7,3.2-11.3,3.2-17.3c-0.1-13.2-4.7-24.2-14-33.4c-6.9-6.9-11.7-7.5-16.7-2.2c-3.4,3.4-7.6,11.6-9,17.6c-1.5,5.8-1.5,17.1-0.1,22.4c2.2,8.1,6.6,15.9,12.3,21.7c3.9,4,6,5.5,8.8,5.9l2.1,0.4l-8.7,8.6l-8.7,8.6l0.6-2.8c0.9-4.9,0.6-18.4-0.6-22.7c-2.9-10.9-11.1-22.7-19.2-27.7c-2.5-1.6-7.4-1.5-10,0.1c-4.1,2.5-9.6,12.3-11.9,21.2c-1.8,6.8-1.8,17.2-0.1,24c1.7,6.5,6,15.1,10.1,19.7c3.3,3.9,8.9,8.9,10,8.9c0.3,0-9.7,10.3-22.3,22.9L10,238.5l3.7,3.7l3.7,3.7l22.1-22.1l22.1-22.1l2,2.5c10.5,13.2,27.3,19.9,43.2,17.5c9.6-1.4,21.3-7.1,23.5-11.3c1.3-2.5,1.3-6.3-0.1-9c-0.6-1.2-3.4-4.5-6.4-7.4c-8.4-8.3-17.9-12.5-29.9-13.3c-3-0.2-7-0.1-8.9,0.2l-3.3,0.6l8.2-8.2l8.2-8.2l1.1,2.5c1.7,3.7,11,12.7,16,15.6c11.3,6.2,25.6,7.7,37.2,3.9c6.1-2,12.1-5.3,14.6-8c1.9-2.1,2.2-2.8,2.2-5.7c0-3.9-1.4-6.3-6.5-11.6c-6.5-6.6-14.5-11-23.9-13.1c-6.3-1.4-16.7-1-22.4,0.9l-4,1.2l10.1-10.1l10.1-10.1l1.2,2.3c1.8,3.4,10,11.3,14.8,14.1c2.4,1.4,6.5,3.3,9.2,4.2c4.5,1.6,5.6,1.7,14.4,1.7c10.6,0,14-0.7,22.2-5c5-2.6,7.7-5.2,8.7-8.2c1-3.4,0-6.2-4-11.1c-5.6-6.8-13.3-11.9-22.3-14.7c-7.1-2.2-20.4-2.3-26.6-0.2c-0.6,0.2,3-3.8,8.1-8.9l9.2-9.3l0.7,2.5c1.8,6.2,12.5,16,22,20.2c7.4,3.3,11.1,4.1,20.4,4.1c10.1,0,15.2-1.2,23.3-5.3c13.1-6.8,13.3-13.8,0.9-25.5c-6.4-6-14.9-10.3-24.1-12.3c-7-1.5-17.7-0.9-24.5,1.5l-5.4,1.8l6.2-6.3l6.3-6.3l6-0.4c7.2-0.4,11.7-1.5,18.4-4.7c16.4-7.8,26.8-23.3,28.2-41.6c0.3-4.9,0.2-5.7-1.1-8.1c-2.1-3.9-4.5-5-10.9-4.9C230.9,10.1,226.9,10.6,224.9,11z"/></g></g></g>
</svg>