<?xml version="1.0" encoding="utf-8"?>
<!-- Svg Vector Icons : http://www.onlinewebfonts.com/icon -->
<!DOCTYPE svg PUBLIC "-//W3C//DTD SVG 1.1//EN" "http://www.w3.org/Graphics/SVG/1.1/DTD/svg11.dtd">
<svg version="1.1" xmlns="http://www.w3.org/2000/svg" xmlns:xlink="http://www.w3.org/1999/xlink" x="0px" y="0px" viewBox="0 0 256 256" enable-background="new 0 0 256 256" xml:space="preserve">
<metadata> Svg Vector Icons : http://www.onlinewebfonts.com/icon </metadata>
<g><g><g><path fill="#000000" d="M120.2,25.5c-0.9,0.4-25.4,21.8-54.5,47.4c-57,50.3-55.1,48.5-55.7,53.6c-0.3,2.8,0.4,5.9,1.9,8.3c1.3,2.1,105.7,94.2,108.2,95.5c1,0.5,2.2,0.9,2.9,0.9c1.8,0,3.8-2,4.4-4.3c0.3-1.4,0.5-10.5,0.5-28.4v-26.3l54.1-0.1l54-0.1l2.6-1.3c1.5-0.7,3.4-2.1,4.2-3.1c3.1-3.6,3.1-2.8,3.1-39.6c0-36.7,0-36-3-39.6c-0.9-1.1-2.8-2.5-4.3-3.2l-2.6-1.3l-54-0.1L128,83.7V57.4c0-17.9-0.2-26.9-0.5-28.4c-0.6-2.4-2.6-4.3-4.5-4.3C122.3,24.7,121.1,25.1,120.2,25.5z"/></g></g></g>
</svg>