<?xml version="1.0" encoding="utf-8"?>
<!-- Svg Vector Icons : http://www.onlinewebfonts.com/icon -->
<!DOCTYPE svg PUBLIC "-//W3C//DTD SVG 1.1//EN" "http://www.w3.org/Graphics/SVG/1.1/DTD/svg11.dtd">
<svg version="1.1" xmlns="http://www.w3.org/2000/svg" xmlns:xlink="http://www.w3.org/1999/xlink" x="0px" y="0px" viewBox="0 0 256 256" enable-background="new 0 0 256 256" xml:space="preserve">
<metadata> Svg Vector Icons : http://www.onlinewebfonts.com/icon </metadata>
<g><g><path fill="#000000" d="M195.7,79.4h-5.7v141.8h-18.6V79.4h-31v141.8h-18.6V79.4h-31v141.8H72.1V79.4H60.2c-14,0-25.4-0.2-25.4,0v148.1c0,13.6,11.4,24.7,25.4,24.7h135.5c14,0,25.4-11.1,25.4-24.7V79.4C221.1,78.3,209.8,79.4,195.7,79.4L195.7,79.4z M233.3,34.9h-55.7V19.7c0-8.8-15.7-15.9-24.8-15.9h-49.7c-9.1,0-24.8,7.1-24.8,15.9v15.2H22.6c-7,0-12.6,5.6-12.6,12.4c0,6.8,5.7,12.4,12.6,12.4h210.7c7,0,12.6-5.6,12.6-12.4C246,40.4,240.3,34.9,233.3,34.9L233.3,34.9z M152.8,34.9h-49.7v-6.2h49.7V34.9L152.8,34.9z"/></g></g>
</svg>