<?xml version="1.0" encoding="utf-8"?>
<!-- Svg Vector Icons : http://www.onlinewebfonts.com/icon -->
<!DOCTYPE svg PUBLIC "-//W3C//DTD SVG 1.1//EN" "http://www.w3.org/Graphics/SVG/1.1/DTD/svg11.dtd">
<svg version="1.1" xmlns="http://www.w3.org/2000/svg" xmlns:xlink="http://www.w3.org/1999/xlink" x="0px" y="0px" viewBox="0 0 256 256" enable-background="new 0 0 256 256" xml:space="preserve">
<metadata> Svg Vector Icons : http://www.onlinewebfonts.com/icon </metadata>
<g><g><g><path fill="#000000" d="M87,10.6c-26.6,1.1-34.4,2.6-39,7.1c-1.5,1.5-2.6,3-3,4.4c-0.4,1.4-0.6,31.5-0.6,102.9c0,110.3-0.2,103.7,2.9,109.4c1.9,3.5,6.7,7.9,10.7,9.7c4.4,2.1,10.4,2.6,13.9,1.3c1.8-0.7,7.5-5.9,29.1-26.8c14.7-14.2,26.9-25.9,27.1-25.9c0.2,0,12.4,11.6,27.1,25.9c21.7,21,27.2,26,29.1,26.7c3.5,1.4,9.5,0.8,13.9-1.2c4-1.8,8.8-6.2,10.7-9.7c3.1-5.7,2.9,0.9,2.9-109.3c0-75-0.2-101.3-0.6-102.8c-2-6.5-8.8-9.4-25.3-10.7C166.8,10,111.7,9.5,87,10.6z M173.7,34.1c5.5,0.3,11,0.7,12.3,0.9l2.3,0.4l0.2,91.3c0.1,53.3-0.1,91.1-0.4,91c-0.3-0.1-12.3-11.6-26.7-25.6c-18.8-18.2-26.9-25.7-28.7-26.6c-2.9-1.4-7.1-1.3-10,0.2c-1,0.6-13.7,12.5-28.1,26.4c-14.5,14-26.5,25.5-26.7,25.6c-0.3,0.1-0.5-40.5-0.5-91.1V35.3l2.7-0.3c2.9-0.4,21.4-1.3,30.1-1.6C111.4,33,164.1,33.5,173.7,34.1z"/></g></g></g>
</svg>