<?xml version="1.0" encoding="utf-8"?>
<!-- Svg Vector Icons : http://www.onlinewebfonts.com/icon -->
<!DOCTYPE svg PUBLIC "-//W3C//DTD SVG 1.1//EN" "http://www.w3.org/Graphics/SVG/1.1/DTD/svg11.dtd">
<svg version="1.1" xmlns="http://www.w3.org/2000/svg" xmlns:xlink="http://www.w3.org/1999/xlink" x="0px" y="0px" viewBox="0 0 256 256" enable-background="new 0 0 256 256" xml:space="preserve">
<metadata> Svg Vector Icons : http://www.onlinewebfonts.com/icon </metadata>
<g><g><g><path fill="#000000" d="M73.2,10.6c-3.1,1.5-3,0.1-3,39.4c0,39,0,38.1,2.8,39.5c1.8,0.9,3,0.9,4.8,0c2.8-1.5,2.8-0.5,2.8-39.5c0-39.4,0.1-37.9-3.1-39.4C75.6,9.7,75.1,9.7,73.2,10.6z"/><path fill="#000000" d="M51.8,21.6l-1.4,1.4V50c0,26.4,0,27.1,0.9,28.2c1.4,1.8,3.8,2.4,5.8,1.6c3.2-1.3,3.2-0.6,3.2-29.6c0-19.2-0.1-26.5-0.6-27.3C58.5,20,54.1,19.3,51.8,21.6z"/><path fill="#000000" d="M92.9,20.9c-2.4,1.3-2.4,1-2.4,29.1c0,29.2-0.1,28.5,3.2,29.8c2,0.9,4.4,0.2,5.8-1.6c0.9-1.2,0.9-1.8,0.9-28.2V22.9L99,21.6C97.4,20.1,94.9,19.7,92.9,20.9z"/><path fill="#000000" d="M33.2,40.7c-2.5,1.1-3,2.6-3,9.9V57l1.6,1.6c1.8,1.8,3.8,2.1,5.9,0.8c2-1.2,2.4-2.4,2.4-9.5c0-7.1-0.3-8-2.8-9.3C35.6,39.8,35.1,39.8,33.2,40.7z"/><path fill="#000000" d="M113.7,40.4c-0.6,0.2-1.5,1-2,1.7c-0.9,1.1-1,1.8-1,7.8c0,7.1,0.4,8.6,2.4,9.6c2.3,1.1,4.1,0.8,5.9-0.9l1.6-1.6v-6.4c0-7.3-0.5-8.9-3.1-10C115.7,39.9,115.1,39.9,113.7,40.4z"/><path fill="#000000" d="M128.4,45.7c-1.7,0.9-2.6,2.4-2.6,4.5c0,1.6,0.3,2.3,1.4,3.4l1.4,1.4h57.2c56.6,0,57.2,0,58.4-0.9c1.8-1.4,2.4-3.8,1.6-5.8c-1.4-3.4,2.7-3.2-59.9-3.2C145.6,45.2,129,45.3,128.4,45.7z"/><path fill="#000000" d="M92.1,91.9c-3.3,3.3-1.2,8.2,3.5,8.3c5.2,0,6.8-7,2.1-9.4C95.7,89.9,93.8,90.2,92.1,91.9z"/><path fill="#000000" d="M74.2,100.5c-1.8,0.3-3.7,2.8-3.7,4.8c0,2.7,2.3,4.9,4.9,4.9c2.7,0,4.9-2.3,4.9-4.9C80.4,102.4,77.3,100,74.2,100.5z"/><path fill="#000000" d="M48.3,116c-1.6,0.7-3,2.8-3,4.6s1.6,4,3.5,4.6l1.7,0.6v8.3v8.3L31,152.1c-18,9-19.5,9.9-20.2,11.4c-0.7,1.4-0.8,3.2-0.7,11.9l0.1,10.3l70.3,0.1l70.2,0.1v-10.6c0-8.7-0.1-10.9-0.7-12c-0.6-1.2-3.7-2.9-20-11l-19.3-9.6v-8.5v-8.5l1.6-0.7c2-0.8,3.1-2.4,3.1-4.5c0-2-0.9-3.5-2.8-4.5C110.6,114.9,50.6,114.9,48.3,116z M77.8,121.2c2.2,1.1,2.8,3.1,2.8,9.4c0,6.3-0.6,8.2-3.1,9.3c-0.8,0.4-1.8,0.8-2.1,0.8c-1.4,0-3.8-1.6-4.4-3.1c-0.9-1.9-1-11.5-0.2-13.8c0.6-1.7,2.9-3.3,4.6-3.3C75.9,120.4,77.1,120.8,77.8,121.2z M88.9,152.2l1.6,1.6v6.4c0,7.4-0.5,8.9-3.2,10c-2,0.9-4.4,0.2-5.8-1.6c-0.8-1.1-0.9-1.9-0.9-7.9c0-7.1,0.4-8.4,2.4-9.5C85.1,150.1,87.1,150.4,88.9,152.2z"/><path fill="#000000" d="M10,218.6c0,19.9,0.1,23.1,0.8,24.4c1.6,3.2-3.2,3.1,69.6,3.1c55.7,0,66-0.1,67.3-0.7c3.1-1.3,3.1-1,3.1-26.6v-23.1H80.4H10V218.6z"/></g></g></g>
</svg>