<?xml version="1.0" encoding="utf-8"?>
<!-- Svg Vector Icons : http://www.onlinewebfonts.com/icon -->
<!DOCTYPE svg PUBLIC "-//W3C//DTD SVG 1.1//EN" "http://www.w3.org/Graphics/SVG/1.1/DTD/svg11.dtd">
<svg version="1.1" xmlns="http://www.w3.org/2000/svg" xmlns:xlink="http://www.w3.org/1999/xlink" x="0px" y="0px" viewBox="0 0 256 256" enable-background="new 0 0 256 256" xml:space="preserve">
<metadata> Svg Vector Icons : http://www.onlinewebfonts.com/icon </metadata>
<g><g><path fill="#000000" d="M246,217.4c0,16.7-13.6,30.3-30.3,30.3c-16.7,0-30.3-13.6-30.3-30.3c0-8.7,3.7-16.6,9.6-22.1c-0.3-1.4-0.5-2.9-0.5-4.4v-68.2c0-11.3,9.5-20.5,21.2-20.5c11.7,0,21.2,9.2,21.2,20.5v68.2c0,1.5-0.2,3-0.5,4.4C242.3,200.9,246,208.7,246,217.4z M224.8,191.2c0-4.9-2.5-10.1-9.1-10.1c-6.5,0-9.1,4.9-9.1,10.1v16.1c0,17.9,4.1,15.2,9.1,15.2c5,0,9.1,4,9.1-15.2V191.2z M209.6,84c-11.7,0-21.6,7.2-25.5,17.3l-50.3,8.3c1.4,3.2,2.3,6.7,2.3,10.4c0,3.5-0.7,6.9-2.1,10l48.4,7.9v49.7c-3.2-0.4-6.4-1.4-9.4-3.1l-41.6-50c-4.2,5.9-11,10-18.7,10.7l23.3,61.4c0,13.6-11.1,24.6-24.9,24.6h-1.6c-13.7,0-24.9-11-24.9-24.6l23.3-61.4c-7.5-0.7-14-4.6-18.2-10.2l-41.5,49.8c-11.9,6.8-27.1,2.8-34-9l-0.8-1.3c-6.9-11.8-2.8-26.8,9.1-33.6L87,130.4c-1.4-3.2-2.2-6.6-2.2-10.4c0-3.9,0.9-7.5,2.4-10.7L22.4,98.6c-11.9-6.8-16-21.8-9.1-33.6l0.8-1.3c6.9-11.8,22.1-15.8,34-9l41.8,50.2c4.3-5.6,10.8-9.5,18.3-10.1l-23.5-62c0-13.6,11.1-24.6,24.9-24.6h1.6c13.7,0,24.9,11,24.9,24.6l-23.5,61.9c7.8,0.6,14.6,4.6,18.9,10.6L173.1,55c11.9-6.8,27.1-2.8,34,9l0.8,1.3c3.4,5.9,4.1,12.6,2.5,18.7C210.1,84.1,209.9,84,209.6,84z"/></g></g>
</svg>