<?xml version="1.0" encoding="utf-8"?>
<!-- Svg Vector Icons : http://www.onlinewebfonts.com/icon -->
<!DOCTYPE svg PUBLIC "-//W3C//DTD SVG 1.1//EN" "http://www.w3.org/Graphics/SVG/1.1/DTD/svg11.dtd">
<svg version="1.1" xmlns="http://www.w3.org/2000/svg" xmlns:xlink="http://www.w3.org/1999/xlink" x="0px" y="0px" viewBox="0 0 256 256" enable-background="new 0 0 256 256" xml:space="preserve">
<metadata> Svg Vector Icons : http://www.onlinewebfonts.com/icon </metadata>
<g><g><g><path fill="#000000" d="M118.9,10.1C102.2,11.8,89.7,15.2,76,22c-12,5.9-20.6,12-30.4,21.5C35.5,53.3,28.2,63.4,21.9,76c-5.8,11.9-9.4,23.6-11.4,37.4c-0.8,5.4-0.8,23.6,0,29.1c3.3,22.9,12.1,43.4,26.1,60.4c32.6,39.6,86.6,53.7,134.2,35.1c30.5-11.9,55.2-36.7,67.2-67.3c4.9-12.6,7.4-24.7,7.9-38.8c1.1-31.9-10.8-62.7-33.1-85.8c-10.2-10.5-20.1-17.7-33-24c-11.6-5.7-22.3-9.1-35.3-11.1C139.9,10.3,122.9,9.7,118.9,10.1z M143.6,22c20.4,3.2,39.1,11.8,54.5,25.1l1.6,1.4l-12.4,12.4L175,73.3l1.5,0.9c0.8,0.5,2.9,1.8,4.6,3.1l3,2.2l11.5-11.5c6.3-6.3,11.6-11.5,11.8-11.5c0.6,0,6.3,7.5,9.8,12.7c13.3,19.9,19.5,44.4,17.3,68.5c-4.7,51.2-45.6,92.2-96.9,96.9c-28.9,2.7-57.8-6.7-79.8-25.7l-1.6-1.4L75.5,188l19.3-19.4l-2.5-1.8c-1.4-1.1-3.5-2.4-4.7-2.9l-2.3-1l-18.4,18.4l-18.4,18.4l-1.4-1.6c-21.6-25-30.5-58.5-24.1-90.9c5.4-27.5,21.5-51.7,45-67.8c14.1-9.7,31.8-16.1,49.4-18C122.8,20.7,137.8,21.2,143.6,22z"/><path fill="#000000" d="M117.1,69.6c-4.8,0.4-13.6,1.7-18,2.5c-14.6,3-27.6,9.6-36.7,18.9c-10,10.1-12.5,19.6-7.8,29.1c1.8,3.6,5,6.7,8.5,8.4c3.5,1.6,5.9,2.1,12.9,2.5c13.5,0.8,17.2,2.6,29.5,14.1c3.3,3.1,7.3,6.7,9,8c11.4,9.3,22.9,13.8,35.8,13.8c7.7,0,14.5-1.6,21.7-5c9.9-4.7,19.3-13.5,23.8-22.3c5.5-10.8,5.4-23.4-0.2-34.9c-5.2-10.7-15.9-20.9-28.4-27.1c-6.7-3.4-13.8-5.4-23.5-6.9C138.9,69.8,121.9,69.2,117.1,69.6z M160.1,118.2c7.5,3.6,7.8,11.4,0.5,15.1c-1.9,1-3.3,1.2-6.4,1.4c-5.1,0.3-8-0.6-10.8-3.3c-3.7-3.6-3.7-7.7,0-11.2c2.6-2.5,5.1-3.3,9.9-3.4C156.7,116.9,157.6,117.1,160.1,118.2z"/><path fill="#000000" d="M52.3,133c0.3,6.5,0.9,8.6,3.4,12.3c3.3,4.8,8.2,6.9,18.9,8.2c6.9,0.8,12.2,2,15.6,3.5c3.9,1.7,7.2,4.2,15,11.8c12.6,12.1,19.9,16.3,34.3,19.8c14,3.4,27.1,0.8,39.9-7.7c12.6-8.4,20.3-21.4,20.4-34.6v-3l-1.7,2.7c-5.5,9.1-14.1,16.7-24.7,21.7c-13.2,6.3-26.9,7-41,2.3c-9.6-3.2-16.9-7.9-27.6-17.8c-14.7-13.5-16.1-14.2-29.6-15.1c-10.8-0.7-15.1-2.2-20.2-7l-3-2.9L52.3,133z"/></g></g></g>
</svg>