<?xml version="1.0" encoding="utf-8"?>
<!-- Svg Vector Icons : http://www.onlinewebfonts.com/icon -->
<!DOCTYPE svg PUBLIC "-//W3C//DTD SVG 1.1//EN" "http://www.w3.org/Graphics/SVG/1.1/DTD/svg11.dtd">
<svg version="1.1" xmlns="http://www.w3.org/2000/svg" xmlns:xlink="http://www.w3.org/1999/xlink" x="0px" y="0px" viewBox="0 0 256 256" enable-background="new 0 0 256 256" xml:space="preserve">
<metadata> Svg Vector Icons : http://www.onlinewebfonts.com/icon </metadata>
<g><g><g><path fill="#000000" d="M50.8,24.9c-12.5,1.6-23.6,5.2-30.4,9.9c-2.8,1.9-5.5,5.2-7.2,8.7c-1.9,3.9-2.4,9.5-0.9,12.6c1.1,2.6,3.6,5.4,5.8,6.6l1.7,0.9v6.1v6.1L16.5,79c-2.1,2.1-3.6,4.1-4.7,6.3l-1.6,3.2l-0.1,66.8L10,222.1l1,2c1.2,2.7,4.5,5.4,7.7,6.6c2.5,0.9,3.1,0.9,46.6,0.8c41.5-0.1,44.2-0.2,45.6-1c2.4-1.3,5.1-4,6.2-6l1-1.9l0.1-65.5c0.1-43.5,0-66.2-0.4-67.7c-0.8-4-2.7-7.3-6.3-10.9l-3.4-3.4v-5.6V64l1.6-0.8c3.8-1.8,7.1-6.2,7.8-10.2c0.8-4.9-2.2-12-6.9-16.3c-5.4-4.9-15.4-8.9-27.8-11.1C75.4,24.3,58.5,23.9,50.8,24.9z M71.4,34.2c1.7,0.3,1.7,0.3,1.1,1.2c-1.2,1.7-0.9,4.3,0.6,5.9c2.4,2.4,7.9,2.4,10.3,0c1.1-1.1,1.3-1.7,1.3-3.5c0-1.8,0.1-2.1,0.8-1.9c0.4,0.1,2.4,0.6,4.5,1.2c7.8,2.1,15.2,6.5,16.8,9.9c1,2.1,1.2,6.2,0.4,7.1c-0.8,0.8-84.8,0.8-85.6,0c-0.6-0.6-0.7-3.7-0.1-5.9c1.2-4.6,10.4-9.7,21.7-12.2c1.1-0.2,1.2-0.2,1,1.8c-0.1,1.8,0,2.3,1.2,3.4c2.4,2.4,7.6,2.5,10.2,0.3c1.7-1.4,2.1-3.5,1.3-5.5c-0.6-1.5-0.6-1.6,0.3-1.8C58.8,33.9,69.6,33.9,71.4,34.2z M98.5,69.4v5.1H64.2H29.8v-5.1v-5.1h34.3h34.3V69.4z M105.7,85.6c0.9,0.8,1.8,2.2,2.1,3.1c0.4,1.2,0.5,22.4,0.4,67.4l-0.1,65.7l-9.5,0.1l-9.6,0.1v-12.5V197l-1.6-1.6c-2.3-2.3-5.3-2.1-7.3,0.5c-0.7,0.9-0.8,2.3-0.8,13.5V222H64.4H49.6v-11.8c0-12.6-0.2-14.1-2.4-15.6c-1.4-1-4.1-1-5.4,0c-2.1,1.5-2.4,3-2.4,15.6V222h-9.1c-6.6,0-9.4-0.1-9.9-0.6c-0.7-0.5-0.8-4.7-0.7-66l0.1-65.5l1.1-2c0.6-1.1,1.7-2.4,2.5-2.9c1.4-0.9,2.6-0.9,41-0.9H104L105.7,85.6z"/><path fill="#000000" d="M59.5,41.9c-2.1,2.1-2.2,4.8-0.2,6.8c1.3,1.2,1.6,1.3,5,1.3c2.6,0,3.9-0.2,4.7-0.7c1.3-0.9,2.4-3.5,2.1-4.7c-1.1-3.4-2.5-4.3-6.9-4.3C61.3,40.3,61,40.4,59.5,41.9z"/><path fill="#000000" d="M62.2,115.9c-4.9,1-10.2,5.1-12.1,9.4c-1.3,2.8-1.2,6.1,0.3,9c2,4,5.4,6.3,13.5,8.9c6.6,2.2,7.4,2.7,7.4,4.7c0,2.3-1.3,3.2-4.7,3.4c-3.7,0.2-5.8-0.4-9.6-2.7c-3.8-2.3-5.7-2.4-7.7-0.5c-1.2,1.2-1.4,1.7-1.4,3.5s0.2,2.4,1.5,3.5c2.1,1.9,7.2,4.4,11.4,5.5c4.6,1.2,7.8,0.9,12-1.2c9.1-4.6,11.3-13.9,4.7-20.1c-2.6-2.4-5.3-3.8-11.3-5.8c-7.3-2.3-8.6-3.6-6.2-6.5c1.1-1.2,1.3-1.3,5.1-1.3h4l1.8,1.9c2.1,2.2,3.7,2.7,5.8,1.8c2.9-1.2,4-3.8,2.7-6.5C77.1,118.3,68.3,114.7,62.2,115.9z"/><path fill="#000000" d="M181.9,24.5c-15.7,1.9-25.8,5-33.7,10.4c-3.2,2.2-5.4,4.9-7.3,8.9c-3.5,7.4-1.8,14.2,4.4,18.6l2.5,1.7v5.9v5.9l-3.2,3c-2.4,2.3-3.7,4-5,6.5l-1.7,3.5v66.8v66.9l1.3,2.2c0.7,1.2,2.3,2.9,3.5,3.8c4.3,3.2,1.6,3,49.8,3h43.6l2.4-1.1c1.3-0.6,3.2-2,4.2-3c3.5-3.7,3.3,2.1,3.2-72.4l-0.1-66.6l-1.5-3.2c-1.8-3.7-4.1-6.8-6.4-8.3l-1.6-1V70v-6.1l1.8-0.9c2.3-1.2,4.9-3.8,6.2-6.2c0.8-1.4,1-2.6,1-5.5c0-13-11.6-21.5-35-25.6c-4.3-0.8-7.8-1-16.1-1.1C188.4,24.3,182.8,24.4,181.9,24.5z M202.2,34.4c18.1,1.7,31.5,7.6,33.2,14.7c0.6,2.4,0.3,4.6-0.6,5.2c-0.3,0.2-19.5,0.4-42.6,0.4c-46.5,0-43.5,0.2-43.5-2.9c0-2.9,1-5.1,3-7.1C159.9,36.8,181.3,32.5,202.2,34.4z M226.2,69.4v5.1h-34.3h-34.3v-5.1v-5.1h34.3h34.3V69.4z M232.7,84.8c0.8,0.4,1.8,1.6,2.4,2.7l1.1,1.9l0.1,65.6c0.1,49,0,65.8-0.4,66.3c-0.5,0.5-2.3,0.6-9.8,0.5l-9.3-0.1l-0.2-12.9c-0.1-7.1-0.3-13-0.4-13c0,0-0.8-0.5-1.6-1c-2.3-1.4-4.3-1.2-6.2,0.6l-1.6,1.6v12.5V222h-14.8h-14.8v-12.5V197l-1.6-1.6c-2.3-2.3-5.3-2.1-7.3,0.5c-0.7,0.9-0.8,2.3-0.8,13.5V222h-8.9c-4.9,0-9.4-0.1-9.9-0.3l-1.1-0.3v-65.6c0-54.1,0.1-65.9,0.6-67.2c0.3-0.8,1.4-2.2,2.3-3l1.7-1.5h39.4C226.3,84.1,231.5,84.2,232.7,84.8z"/><path fill="#000000" d="M188.9,40.7c-2.5,1-3.8,4.1-2.8,6.6c0.9,2.2,2.3,2.8,6.4,2.8c3.3,0,3.8-0.1,4.9-1.2c2.1-2.1,2.2-4.5,0.1-6.9c-1-1.2-1.4-1.3-4.5-1.4C191.1,40.4,189.2,40.5,188.9,40.7z"/><path fill="#000000" d="M180.2,116.2c-2.9,1.4-3,1.8-2.8,22.5l0.1,18.7l1.5,1.4c2,2.1,4.7,2.1,6.7,0l1.5-1.4l0.1-6.5l0.2-6.5h4.3c8,0,13.9-2.2,17.1-6.4c1.9-2.5,2.4-4.5,2.4-8.8c0-7.4-4.3-12-12.6-13.4C194.2,115.2,182,115.4,180.2,116.2z M200.6,127c1.4,1.3,1.6,3.5,0.5,5c-1.3,1.9-3,2.4-8.5,2.4h-5.1V130v-4.4l5.9,0.2C199,125.9,199.5,125.9,200.6,127z"/></g></g></g>
</svg>