<?xml version="1.0" encoding="utf-8"?>
<!-- Svg Vector Icons : http://www.onlinewebfonts.com/icon -->
<!DOCTYPE svg PUBLIC "-//W3C//DTD SVG 1.1//EN" "http://www.w3.org/Graphics/SVG/1.1/DTD/svg11.dtd">
<svg version="1.1" xmlns="http://www.w3.org/2000/svg" xmlns:xlink="http://www.w3.org/1999/xlink" x="0px" y="0px" viewBox="0 0 256 256" enable-background="new 0 0 256 256" xml:space="preserve">
<metadata> Svg Vector Icons : http://www.onlinewebfonts.com/icon </metadata>
<g><g><g><path fill="#000000" d="M96,10.5c-17.9,1.9-35.9,9.3-50.1,20.6C21,51,7.3,83.5,10.5,115.2c3.4,33.2,23.3,62,53.1,76.7c30.4,15,66.3,12.8,95-5.9l3.9-2.5l30.2,30.1c23.9,23.9,30.7,30.4,32.5,31.2c1.9,0.9,3,1.1,6.2,1.1c3.6,0,4.2-0.2,6.8-1.6c3.2-1.8,4.6-3.2,6.5-6.7c1.7-3.3,1.8-9,0.1-12.5c-0.8-1.8-7.1-8.4-31.2-32.5l-30.1-30.2l2.5-3.9c12-18.4,17.5-40.2,15.4-61.4c-3.3-33.4-23.2-62.4-53.1-77.2C132.5,12.1,113.5,8.7,96,10.5z M118.3,40.7c23.8,4.6,43.3,21.9,50.8,44.8c4.2,12.9,4.2,28.1,0,41c-3.3,10.1-8.6,18.6-16.3,26.3c-8.9,8.9-18.7,14.6-30.6,17.5c-22.9,5.7-46.3-0.8-63-17.5c-9.7-9.6-15.8-21.1-18.5-34.7c-1.1-5.6-1.1-18.6,0-24.3C45,71.5,60,53.1,80.8,44.6c5-2.1,11.9-3.9,16.9-4.6C102.5,39.4,113.7,39.8,118.3,40.7z"/></g></g></g>
</svg>