<?xml version="1.0" encoding="utf-8"?>
<!-- Svg Vector Icons : http://www.onlinewebfonts.com/icon -->
<!DOCTYPE svg PUBLIC "-//W3C//DTD SVG 1.1//EN" "http://www.w3.org/Graphics/SVG/1.1/DTD/svg11.dtd">
<svg version="1.1" xmlns="http://www.w3.org/2000/svg" xmlns:xlink="http://www.w3.org/1999/xlink" x="0px" y="0px" viewBox="0 0 256 256" enable-background="new 0 0 256 256" xml:space="preserve">
<metadata> Svg Vector Icons : http://www.onlinewebfonts.com/icon </metadata>
<g><g><path fill="#000000" d="M205.6,246H50.8c-8.1,0-14.8-6.6-14.8-14.8v-177c0-8.2,6.2-14.8,14.4-14.8v177c0,8.2,7,14.8,15.1,14.8H95c8.1,0,16.3-6.6,16.3-14.8V38.3h94.3c8.1,0,14.4,7.8,14.4,15.9v177C220,239.4,213.8,246,205.6,246z M172.8,222.3H187v-14.2h-14.2V222.3z M172.8,203.4H187v-14.2h-14.2V203.4z M172.8,184.5H187v-14.2h-14.2V184.5z M172.8,165.7H187v-14.2h-14.2V165.7z M154,222.3h14.2v-14.2H154V222.3z M154,203.4h14.2v-14.2H154V203.4z M154,184.5h14.2v-14.2H154V184.5z M154,165.7h14.2v-14.2H154V165.7z M135.1,222.3h14.2v-14.2h-14.2V222.3z M135.1,203.4h14.2v-14.2h-14.2V203.4z M135.1,184.5h14.2v-14.2h-14.2V184.5z M135.1,165.7h14.2v-14.2h-14.2V165.7z M205.6,59.7c0-4.1-3.3-7.4-7.4-7.4h-65.6c-4.1,0-7.4,3.3-7.4,7.4v32.7c0,4.1,3.3,7.4,7.4,7.4h65.6c4.1,0,7.4-3.3,7.4-7.4L205.6,59.7L205.6,59.7z M205.8,151.5h-14.2v14.2h14.2V151.5z M205.8,170.4h-14.2v14.2h14.2V170.4z M205.8,189.3h-14.2v14.2h14.2V189.3z M205.8,208.1h-14.2v14.2h14.2V208.1z M94.6,222.3H66.7c-4.1,0-7.4-3.3-7.4-7.4V31.7c0-4.1,3.3-7.4,7.4-7.4h11.9V10h9v14.4h7c4.1,0,7.4,3.3,7.4,7.4v183.2C102,219,98.7,222.3,94.6,222.3z"/></g></g>
</svg>